<!DOCTYPE svg PUBLIC "-//W3C//DTD SVG 1.1//EN" "http://www.w3.org/Graphics/SVG/1.1/DTD/svg11.dtd">
<!-- Uploaded to: SVG Repo, www.svgrepo.com, Transformed by: SVG Repo Mixer Tools -->
<svg fill="#f1cc62" version="1.1" id="Layer_1" xmlns="http://www.w3.org/2000/svg" xmlns:xlink="http://www.w3.org/1999/xlink" viewBox="0 0 496 496" xml:space="preserve" width="800px" height="800px" stroke="#f1cc62">
<g id="SVGRepo_bgCarrier" stroke-width="0"/>
<g id="SVGRepo_tracerCarrier" stroke-linecap="round" stroke-linejoin="round"/>
<g id="SVGRepo_iconCarrier"> <g> <g> <g> <path d="M496,16V0H336v16h72v16h-24v16h-17.472c-3.312-9.288-12.112-16-22.528-16H152c-10.416,0-19.216,6.712-22.528,16H112V32 H88V16h72V0H0v16h72v16H48v48c0,17.648,14.352,32,32,32c11.792,0,22-6.48,27.552-16H128v9.296l13,39.008 c-11.808,1.496-21,11.488-21,23.696v64h16v-64c0-4.416,3.584-8,8-8h2.232H152h192h5.768H352c4.416,0,8,3.584,8,8v64h16v-64 c0-12.208-9.192-22.2-21-23.696l13-39.008V96h20.448c5.552,9.52,15.76,16,27.552,16c17.648,0,32-14.352,32-32V32h-24V16H496z M96,80c0,8.824-7.176,16-16,16s-16-7.176-16-16V48h32V80z M128,80h-16V64h16V80z M338.232,144H157.768l-10.664-32H160v16h16v-16 h16v16h16v-16h16v16h16v-16h16v16h16v-16h16v16h16v-16h16v16h16v-16h12.904L338.232,144z M352,96H144V56c0-4.416,3.584-8,8-8h192 c4.416,0,8,3.584,8,8V96z M384,80h-16V64h16V80z M432,48v32c0,8.824-7.176,16-16,16c-8.824,0-16-7.176-16-16V48H432z"/> <path d="M384,304H248H112c-13.232,0-24,10.768-24,24v144c0,13.232,10.768,24,24,24h272c13.232,0,24-10.768,24-24V328 C408,314.768,397.232,304,384,304z M120,480h-8c-4.416,0-8-3.584-8-8V328c0-4.416,3.584-8,8-8h8V480z M344,480H136V320h208V480z M392,472c0,4.416-3.584,8-8,8h-24V320h24c4.416,0,8,3.584,8,8V472z"/> <rect x="368" y="376" width="16" height="48"/> <path d="M192,440c22.056,0,40-17.944,40-40c0-22.056-17.944-40-40-40c-22.056,0-40,17.944-40,40C152,422.056,169.944,440,192,440 z M192,376c13.232,0,24,10.768,24,24s-10.768,24-24,24s-24-10.768-24-24S178.768,376,192,376z"/> <path d="M288,440c22.056,0,40-17.944,40-40c0-22.056-17.944-40-40-40c-22.056,0-40,17.944-40,40C248,422.056,265.944,440,288,440 z M288,376c13.232,0,24,10.768,24,24s-10.768,24-24,24s-24-10.768-24-24S274.768,376,288,376z"/> <rect x="280" y="392" width="16" height="16"/> <rect x="184" y="392" width="16" height="16"/> <path d="M272,280c0-13.232-10.768-24-24-24s-24,10.768-24,24s10.768,24,24,24S272,293.232,272,280z M248,288 c-4.416,0-8-3.584-8-8c0-4.416,3.584-8,8-8s8,3.584,8,8C256,284.416,252.416,288,248,288z"/> <path d="M248,224c-30.872,0-56,25.128-56,56h16c0-22.056,17.944-40,40-40c22.056,0,40,17.944,40,40h16 C304,249.128,278.872,224,248,224z"/> <path d="M336,280c0-48.52-39.48-88-88-88c-48.52,0-88,39.48-88,88h16c0-39.704,32.296-72,72-72s72,32.296,72,72H336z"/> </g> </g> </g> </g>
</svg>